<mxfile modified="2022-05-03T21:33:58.233Z" host="app.diagrams.net" agent="5.0 (Windows NT 10.0; Win64; x64) AppleWebKit/537.36 (KHTML, like Gecko) Chrome/100.0.4896.127 Safari/537.36 Edg/100.0.1185.50" etag="TX2Po37QfNMaz_dqP-Pe" compressed="false" version="17.5.0" type="google">
  <diagram name="Functionality/Capabilities/User &amp; Group Management" id="pxDrP1qXb-jRke9CEae6">
    <mxGraphModel grid="1" page="1" gridSize="10" guides="1" tooltips="1" connect="0" arrows="1" fold="1" pageScale="1" pageWidth="827" pageHeight="1169" math="0" shadow="0">
      <root>
        <mxCell id="vb13An-UtkVGvZ7uddKO-0" />
        <mxCell id="vb13An-UtkVGvZ7uddKO-1" parent="vb13An-UtkVGvZ7uddKO-0" />
        <mxCell id="vb13An-UtkVGvZ7uddKO-2" value="Users &amp;amp; Groups" style="rounded=1;whiteSpace=wrap;html=1;strokeWidth=1;fillColor=#f5f5f5;dashed=1;absoluteArcSize=1;arcSize=8;container=1;collapsible=0;recursiveResize=0;align=left;verticalAlign=top;strokeColor=#666666;fontColor=#333333;" vertex="1" parent="vb13An-UtkVGvZ7uddKO-1">
          <mxGeometry x="280" y="271" width="150" height="120" as="geometry" />
        </mxCell>
        <mxCell id="vb13An-UtkVGvZ7uddKO-20" value="User Mgmt" style="rounded=0;whiteSpace=wrap;html=1;" vertex="1" parent="vb13An-UtkVGvZ7uddKO-1">
          <mxGeometry x="290" y="300" width="130" height="20" as="geometry" />
        </mxCell>
        <mxCell id="vb13An-UtkVGvZ7uddKO-21" value="Group Mgmt" style="rounded=0;whiteSpace=wrap;html=1;" vertex="1" parent="vb13An-UtkVGvZ7uddKO-1">
          <mxGeometry x="290" y="320" width="130" height="20" as="geometry" />
        </mxCell>
        <mxCell id="vb13An-UtkVGvZ7uddKO-22" value="Organisation Mgmt" style="rounded=0;whiteSpace=wrap;html=1;" vertex="1" parent="vb13An-UtkVGvZ7uddKO-1">
          <mxGeometry x="290" y="340" width="130" height="20" as="geometry" />
        </mxCell>
        <mxCell id="vb13An-UtkVGvZ7uddKO-23" value="Tenancy Mgmt" style="rounded=0;whiteSpace=wrap;html=1;" vertex="1" parent="vb13An-UtkVGvZ7uddKO-1">
          <mxGeometry x="290" y="360" width="130" height="20" as="geometry" />
        </mxCell>
        <mxCell id="vb13An-UtkVGvZ7uddKO-46" value="&lt;font style=&quot;font-size: 12px&quot;&gt;Diagram: Base System Logical Module - User &amp;amp; Group Functionality Mgmt Group - High Level&lt;/font&gt;" style="text;strokeColor=none;fillColor=none;html=1;fontSize=12;fontStyle=2;verticalAlign=middle;align=left;shadow=0;glass=0;comic=0;opacity=30;fontColor=#808080;strokeWidth=1;" vertex="1" parent="vb13An-UtkVGvZ7uddKO-1">
          <mxGeometry x="120" y="400" width="520" height="20" as="geometry" />
        </mxCell>
      </root>
    </mxGraphModel>
  </diagram>
</mxfile>
